<!-- icon666.com - MILLIONS OF FREE VECTOR ICONS --><svg viewBox="0 0 64 64" xmlns="http://www.w3.org/2000/svg"><g id="Layer_67" data-name="Layer 67"><path d="m34 60.5a.5.5 0 0 1 -.39-.18l-23.21-28a.51.51 0 0 1 0-.64l23.21-28a.51.51 0 0 1 .71-.06l2.23 1.85a.5.5 0 0 1 .07.7l-21.44 25.83 21.42 25.83a.5.5 0 0 1 -.07.7c-.18.09-2.36 2.11-2.53 1.97zm-22.59-28.5 22.59 27.3 1.47-1.22-21.32-25.76a.49.49 0 0 1 0-.64l21.36-25.76-1.51-1.22z" fill="#000000" style="fill: rgb(255, 255, 255);"></path><path d="m50.21 60.5a.51.51 0 0 1 -.39-.18l-23.21-28a.51.51 0 0 1 0-.64l23.21-28a.51.51 0 0 1 .71-.06l2.23 1.85a.5.5 0 0 1 .07.7l-21.42 25.83 21.42 25.83a.5.5 0 0 1 -.07.7c-.17.09-2.36 2.11-2.55 1.97zm-22.56-28.5 22.63 27.3 1.46-1.22-21.36-25.76a.51.51 0 0 1 0-.64l21.36-25.76-1.46-1.22z" fill="#000000" style="fill: rgb(255, 255, 255);"></path></g></svg>