<!-- icon666.com - MILLIONS OF FREE VECTOR ICONS --><svg id="Layer_1" enable-background="new 0 0 90 90" viewBox="0 0 90 90" xmlns="http://www.w3.org/2000/svg"><g fill="rgb(0,0,0)"><path d="m40.1 11.955h9.802l1.24 5.725c.239 1.119 1.052 2.029 2.141 2.396 1.177.395 2.322.875 3.432 1.432 1.031.516 2.256.447 3.219-.178l4.938-3.178 6.933 6.938-3.161 4.906c-.615.965-.688 2.172-.183 3.199.552 1.115 1.016 2.266 1.401 3.447.359 1.1 1.275 1.928 2.406 2.172l5.739 1.238v9.809l-5.731 1.239c-1.119.246-2.025 1.059-2.391 2.148-.396 1.172-.875 2.322-1.432 3.432-.516 1.025-.448 2.248.177 3.219l3.172 4.926-6.933 6.932-4.905-3.157c-.958-.619-2.172-.691-3.197-.186-1.115.553-2.271 1.014-3.453 1.4-1.104.359-1.928 1.275-2.172 2.406l-1.24 5.74h-9.802l-1.239-5.725c-.245-1.119-1.058-2.031-2.141-2.395-1.178-.398-2.328-.871-3.438-1.428-1.026-.516-2.25-.453-3.214.172l-4.933 3.17-6.942-6.932 3.172-4.904c.614-.959.688-2.172.183-3.199-.553-1.115-1.026-2.266-1.412-3.449-.354-1.098-1.271-1.92-2.396-2.172l-5.745-1.238v-9.809l5.729-1.238c1.12-.244 2.026-1.059 2.391-2.141.396-1.178.875-2.328 1.433-3.432.516-1.033.453-2.256-.172-3.219l-3.183-4.934 6.942-6.938 4.906 3.166c.959.615 2.172.689 3.198.184 1.114-.547 2.266-1.016 3.448-1.402 1.099-.357 1.927-1.275 2.172-2.404zm-2.63-6.5c-1.531 0-2.854 1.074-3.172 2.568l-1.433 6.635c-.239.094-.474.188-.708.285l-5.709-3.672c-1.286-.832-2.974-.654-4.057.428l-10.646 10.647c-1.083 1.078-1.266 2.771-.438 4.059l3.683 5.713c-.099.234-.198.469-.292.701l-6.635 1.438c-1.495.324-2.563 1.648-2.563 3.178v15.053c0 1.527 1.067 2.848 2.563 3.172l6.635 1.438c.094.238.188.475.287.709l-3.678 5.703c-.828 1.287-.646 2.973.438 4.057l10.646 10.645c1.078 1.086 2.771 1.268 4.057.438l5.714-3.686c.229.1.464.201.692.295l1.443 6.648c.322 1.488 1.646 2.557 3.172 2.557h15.057c1.531 0 2.854-1.068 3.178-2.557l1.432-6.648c.24-.094.479-.186.714-.285l5.703 3.676c1.286.83 2.974.648 4.058-.438l10.646-10.645c1.078-1.078 1.261-2.766.433-4.051l-3.683-5.715c.104-.234.203-.469.297-.709l6.636-1.432c1.494-.324 2.567-1.645 2.567-3.172v-15.054c0-1.529-1.073-2.854-2.567-3.178l-6.636-1.438c-.094-.238-.188-.473-.286-.707l3.672-5.707c.833-1.287.65-2.98-.433-4.059l-10.647-10.646c-1.084-1.082-2.776-1.26-4.058-.428l-5.714 3.684c-.234-.098-.463-.203-.697-.297l-1.438-6.641c-.323-1.494-1.646-2.563-3.178-2.563h-15.055z" fill="rgb(0,0,0)" style="fill: rgb(255, 255, 255);"></path><path d="m45.001 32.846c6.724 0 12.114 5.391 12.114 12.115 0 6.729-5.391 12.109-12.114 12.109-6.729 0-12.115-5.381-12.115-12.109 0-6.725 5.385-12.115 12.115-12.115zm0-6.5c-10.24 0-18.609 8.375-18.609 18.615 0 10.244 8.369 18.609 18.609 18.609 10.239 0 18.609-8.365 18.609-18.609 0-10.24-8.37-18.615-18.609-18.615z" fill="rgb(0,0,0)" style="fill: rgb(255, 255, 255);"></path></g></svg>