<svg width="24" height="24" viewBox="0 0 24 24" fill="none" xmlns="http://www.w3.org/2000/svg">
<path fill-rule="evenodd" clip-rule="evenodd" d="M11 3.90184C11 3.44993 10.6062 3.09567 10.1637 3.18741C6.07375 4.03528 3 7.65864 3 11.9999C3 16.3412 6.07375 19.9646 10.1637 20.8124C10.6062 20.9042 11 20.5499 11 20.098C11 19.7178 10.7172 19.4005 10.3463 19.317C6.9998 18.5639 4.5 15.5738 4.5 11.9999C4.5 8.426 6.9998 5.43594 10.3463 4.68284C10.7172 4.59937 11 4.28204 11 3.90184ZM13.6537 4.68284C13.2828 4.59937 13 4.28204 13 3.90184C13 3.44992 13.394 3.09569 13.8365 3.18744C17.3334 3.91244 20.0875 6.66649 20.8125 10.1634C20.9042 10.606 20.55 10.9999 20.0981 10.9999C19.7179 10.9999 19.4006 10.7171 19.3171 10.3462C18.6837 7.53177 16.4682 5.3162 13.6537 4.68284ZM13 20.098C13 19.7178 13.2828 19.4005 13.6537 19.317C16.4682 18.6836 18.6837 16.4681 19.3171 13.6536C19.4006 13.2827 19.7179 12.9999 20.0981 12.9999C20.55 12.9999 20.9042 13.3939 20.8125 13.8364C20.0875 17.3333 17.3334 20.0874 13.8365 20.8124C13.394 20.9041 13 20.5499 13 20.098Z" fill="#6C808C"/>
</svg>
