<!-- icon666.com - MILLIONS OF FREE VECTOR ICONS --><svg viewBox="0 0 24 24" xmlns="http://www.w3.org/2000/svg"><g id="Layer_2" ><path d="m19.388 2.191a1.731 1.731 0 0 0 -1.738-.021l-7.061 3.923a1.268 1.268 0 0 1 -.608.157h-3.481a2.752 2.752 0 0 0 -2.75 2.75v6a2.752 2.752 0 0 0 2.75 2.75h3.481a1.268 1.268 0 0 1 .608.157l7.061 3.923a1.749 1.749 0 0 0 2.6-1.529v-16.601a1.734 1.734 0 0 0 -.862-1.509z" fill="#8dd1ff" style="fill: rgb(154, 159, 162);"></path><path d="m18 22.75a.752.752 0 0 1 -.645-.364l-12-20a.751.751 0 1 1 1.288-.772l12 20a.75.75 0 0 1 -.643 1.136z" fill="#3e96ed" style="fill: rgb(108, 117, 127);"></path><g fill="#004fac"><path d="m17.249 21.5a.745.745 0 0 1 -.363-.094l-6.3-3.5a1.277 1.277 0 0 0 -.606-.156h-3.48a2.752 2.752 0 0 1 -2.75-2.75v-6a2.752 2.752 0 0 1 2.75-2.75h2.5a.75.75 0 0 1 0 1.5h-2.5a1.252 1.252 0 0 0 -1.25 1.25v6a1.252 1.252 0 0 0 1.25 1.25h3.48a2.773 2.773 0 0 1 1.333.343l6.3 3.5a.75.75 0 0 1 -.365 1.406z" fill="#004fac" style="fill: rgb(106, 109, 113);"></path><path d="m18 22.75a.752.752 0 0 1 -.645-.364l-12-20a.751.751 0 0 1 1.288-.772l12 20a.751.751 0 0 1 -.258 1.029.742.742 0 0 1 -.385.107z" fill="#004fac" style="fill: rgb(106, 109, 113);"></path><path d="m19.46 21.31a.779.779 0 0 1 -.266-.048.751.751 0 0 1 -.435-.967l-.009-16.595a.239.239 0 0 0 -.121-.211.256.256 0 0 0 -.257 0l-6.888 3.83a.75.75 0 0 1 -.728-1.319l6.89-3.829a1.751 1.751 0 0 1 2.604 1.529v16.6a1.449 1.449 0 0 1 -.089.525.749.749 0 0 1 -.701.485z" fill="#004fac" style="fill: rgb(106, 109, 113);"></path></g></g></svg>