<svg width="56" height="56" viewBox="0 0 56 56" fill="none" xmlns="http://www.w3.org/2000/svg">
<g clip-path="url(#clip0_161_41244)">
<path d="M21 27H25C26.1 27 27 26.1 27 25V21C27 19.9 26.1 19 25 19H21C19.9 19 19 19.9 19 21V25C19 26.1 19.9 27 21 27ZM21 21H25V25H21V21Z" fill="#EAF4FA"/>
<path d="M21 37H25C26.1 37 27 36.1 27 35V31C27 29.9 26.1 29 25 29H21C19.9 29 19 29.9 19 31V35C19 36.1 19.9 37 21 37ZM21 31H25V35H21V31Z" fill="#EAF4FA"/>
<path d="M29 21V25C29 26.1 29.9 27 31 27H35C36.1 27 37 26.1 37 25V21C37 19.9 36.1 19 35 19H31C29.9 19 29 19.9 29 21ZM35 25H31V21H35V25Z" fill="#EAF4FA"/>
<path d="M37 36.5V35.5C37 35.22 36.78 35 36.5 35H35.5C35.22 35 35 35.22 35 35.5V36.5C35 36.78 35.22 37 35.5 37H36.5C36.78 37 37 36.78 37 36.5Z" fill="#EAF4FA"/>
<path d="M29 29.5V30.5C29 30.78 29.22 31 29.5 31H30.5C30.78 31 31 30.78 31 30.5V29.5C31 29.22 30.78 29 30.5 29H29.5C29.22 29 29 29.22 29 29.5Z" fill="#EAF4FA"/>
<path d="M32.5 31H31.5C31.22 31 31 31.22 31 31.5V32.5C31 32.78 31.22 33 31.5 33H32.5C32.78 33 33 32.78 33 32.5V31.5C33 31.22 32.78 31 32.5 31Z" fill="#EAF4FA"/>
<path d="M29 33.5V34.5C29 34.78 29.22 35 29.5 35H30.5C30.78 35 31 34.78 31 34.5V33.5C31 33.22 30.78 33 30.5 33H29.5C29.22 33 29 33.22 29 33.5Z" fill="#EAF4FA"/>
<path d="M31.5 37H32.5C32.78 37 33 36.78 33 36.5V35.5C33 35.22 32.78 35 32.5 35H31.5C31.22 35 31 35.22 31 35.5V36.5C31 36.78 31.22 37 31.5 37Z" fill="#EAF4FA"/>
<path d="M33.5 35H34.5C34.78 35 35 34.78 35 34.5V33.5C35 33.22 34.78 33 34.5 33H33.5C33.22 33 33 33.22 33 33.5V34.5C33 34.78 33.22 35 33.5 35Z" fill="#EAF4FA"/>
<path d="M34.5 29H33.5C33.22 29 33 29.22 33 29.5V30.5C33 30.78 33.22 31 33.5 31H34.5C34.78 31 35 30.78 35 30.5V29.5C35 29.22 34.78 29 34.5 29Z" fill="#EAF4FA"/>
<path d="M35.5 33H36.5C36.78 33 37 32.78 37 32.5V31.5C37 31.22 36.78 31 36.5 31H35.5C35.22 31 35 31.22 35 31.5V32.5C35 32.78 35.22 33 35.5 33Z" fill="#EAF4FA"/>
</g>
<defs>
<clipPath id="clip0_161_41244">
<rect width="24" height="24" fill="white" transform="translate(16 16)"/>
</clipPath>
</defs>
</svg>
