<svg width="60"
    height="60"
    viewBox="0 0 60 60"
    fill="none"
    xmlns="http://www.w3.org/2000/svg">
    <path
        fill-rule="evenodd"
        clip-rule="evenodd"
        d="M30 60C46.5685 60 60 46.5685 60 30C60 13.4315 46.5685 0 30 0C13.4315 0 0 13.4315 0 30C0 46.5685 13.4315 60 30 60Z"
        fill="url(#paint0_linear_0_5745)" />
    <path
        fill-rule="evenodd"
        clip-rule="evenodd"
        d="M30.7358 34.7846C30.3465 34.3972 29.7175 34.3962 29.327 34.7825L21.555 42.4721C20.6078 43.4093 19 42.7383 19 41.4058V20C19 17.7909 20.7909 16 23 16H37C39.2091 16 41 17.7909 41 20V41.3909C41 42.7255 39.3878 43.3955 38.4419 42.454L30.7358 34.7846Z"
        fill="white" />
    <defs>
        <linearGradient
            id="paint0_linear_0_5745"
            x1="4.74213"
            y1="0"
            x2="4.74213"
            y2="50.5157"
            gradientUnits="userSpaceOnUse">
            <stop stop-color="#6FD4FC" />
            <stop
                offset="1"
                stop-color="#2B9EF0" />
        </linearGradient>
    </defs>
</svg>
