<svg width="24" height="24" viewBox="0 0 24 24" fill="none" xmlns="http://www.w3.org/2000/svg">
<path d="M19.5 6.75H4.5C3.25736 6.75 2.25 7.75736 2.25 9V18C2.25 19.2426 3.25736 20.25 4.5 20.25H19.5C20.7426 20.25 21.75 19.2426 21.75 18V9C21.75 7.75736 20.7426 6.75 19.5 6.75Z" stroke="#6C808C" stroke-width="1.5" stroke-linejoin="round"/>
<path d="M19.2825 6.74998V5.34373C19.2824 4.99883 19.2062 4.6582 19.0592 4.34615C18.9123 4.0341 18.6984 3.75832 18.4326 3.53849C18.1668 3.31866 17.8558 3.16019 17.5217 3.0744C17.1877 2.98861 16.8388 2.9776 16.5 3.04217L4.155 5.1492C3.6189 5.25136 3.13526 5.53741 2.78749 5.958C2.43972 6.37859 2.24963 6.90736 2.25 7.4531V9.74998" stroke="#6C808C" stroke-width="1.5" stroke-linejoin="round"/>
<path d="M17.1035 12.7646C17.249 12.7357 17.4001 12.7499 17.5371 12.8066C17.6741 12.8634 17.7916 12.9597 17.874 13.083C17.9564 13.2063 18 13.3517 18 13.5C18 13.6989 17.9209 13.8896 17.7803 14.0303C17.6396 14.1709 17.4489 14.25 17.25 14.25C17.1017 14.25 16.9563 14.2064 16.833 14.124C16.7097 14.0416 16.6134 13.9241 16.5566 13.7871C16.4999 13.6501 16.4857 13.499 16.5146 13.3535C16.5436 13.2081 16.6149 13.0746 16.7197 12.9697C16.8246 12.8649 16.9581 12.7936 17.1035 12.7646Z" stroke="#6C808C" stroke-width="1.5"/>
</svg>
